Coordinates
version=1
nRows=13
nColumns=40
inDegrees=yes

Units are S.I. units (second, meters, Newtons, ...)
Angles are in degrees.

endheader
time	pelvis_tilt	pelvis_list	pelvis_rotation	pelvis_tx	pelvis_ty	pelvis_tz	hip_flexion_r	hip_adduction_r	hip_rotation_r	knee_angle_r	knee_angle_r_beta	ankle_angle_r	subtalar_angle_r	mtp_angle_r	hip_flexion_l	hip_adduction_l	hip_rotation_l	knee_angle_l	knee_angle_l_beta	ankle_angle_l	subtalar_angle_l	mtp_angle_l	lumbar_extension	lumbar_bending	lumbar_rotation	arm_flex_r	arm_add_r	arm_rot_r	elbow_flex_r	pro_sup_r	wrist_flex_r	wrist_dev_r	arm_flex_l	arm_add_l	arm_rot_l	elbow_flex_l	pro_sup_l	wrist_flex_l	wrist_dev_l
      6.51628571	     -3.42068475	     -4.22589505	     -3.03152317	      1.04109463	      0.93598428	      0.45072875	     35.39362087	     -5.00824999	     -4.22188748	     59.39555031	     59.39555031	      1.58781285	    -13.67725691	      0.71310278	      9.69561306	     -5.12201620	    -10.28656115	     17.29520680	     17.29520680	     11.92797455	    -12.26048383	     -4.24776655	    -11.07788179	      6.14066347	      0.80932019	      4.80328445	    -11.70085763	     -8.23049651	     34.00398180	     46.80927441	      0.00000000	      0.00000000	     17.44923556	    -16.37557598	      8.11857136	     45.80433598	     45.91298117	      0.00000000	      0.00000000
      6.52757143	     -3.32926526	     -4.25420721	     -3.34353762	      1.04010015	      0.93585204	      0.45107734	     35.72482940	     -4.92412756	     -4.45796045	     56.20245171	     56.20245171	      1.21962067	    -12.75019562	      0.97514889	      8.73864212	     -5.09802975	    -10.52345320	     16.87948995	     16.87948995	     12.37934786	    -12.21592387	     -4.37323257	    -11.33533079	      6.35925433	      1.27119841	      3.08650985	    -12.14289903	     -8.57301654	     32.13100253	     46.88459120	      0.00000000	      0.00000000	     19.18356494	    -16.68373009	      7.75827230	     47.35781797	     45.98568063	      0.00000000	      0.00000000
      6.53885714	     -3.34169091	     -4.19461691	     -3.63045306	      1.03914920	      0.93551636	      0.45144119	     35.96044651	     -4.90532033	     -4.76909823	     52.62461521	     52.62461521	      0.44705383	    -11.82632033	     -0.02955824	      7.86341561	     -4.96992408	    -10.78621074	     16.36447361	     16.36447361	     12.57260292	    -12.21096166	     -4.94238679	    -11.45290181	      6.48427961	      0.96037386	      3.34793543	    -11.93364840	    -11.25346823	     26.47369069	     47.26426883	      0.00000000	      0.00000000	     19.83137156	    -17.75504453	      7.52571313	     50.46323816	     46.08533809	      0.00000000	      0.00000000
      6.55014286	     -3.35272925	     -4.17388379	     -3.94672108	      1.03838503	      0.93507757	      0.45188374	     36.04847876	     -4.84443111	     -5.22851808	     48.89642590	     48.89642590	      0.21506211	    -10.33171569	      0.16768366	      6.97287201	     -4.88581000	    -11.05571962	     15.88047206	     15.88047206	     12.98004539	    -12.10002945	     -5.06699025	    -11.61263313	      6.67645162	      1.38254620	      1.57522964	    -12.40430916	    -11.67213897	     25.07557694	     47.33725004	      0.00000000	      0.00000000	     21.39842848	    -18.00086453	      7.06221419	     52.01275855	     46.16450117	      0.00000000	      0.00000000
      6.56142857	     -3.43373521	     -4.00970859	     -4.28520411	      1.03779635	      0.93437604	      0.45245182	     36.07850975	     -4.85270702	     -5.66020379	     44.99574981	     44.99574981	     -0.08781871	     -8.62535690	     -0.10976985	      6.07885065	     -4.63407576	    -11.38350484	     15.25290023	     15.25290023	     13.28522673	    -11.90810385	     -5.40174137	    -11.63499859	      6.67670047	      1.76146918	      0.15056721	    -12.70817493	    -12.60568385	     23.02028172	     47.48933356	      0.00000000	      0.00000000	     22.61192777	    -18.37844783	      6.53877966	     54.39335083	     46.26209512	      0.00000000	      0.00000000
      6.57271429	     -3.49172686	     -3.97510054	     -4.58992455	      1.03744049	      0.93366248	      0.45314447	     35.81551932	     -4.70277843	     -6.33056273	     40.83408103	     40.83408103	     -0.18122253	     -6.72756248	      0.01689533	      5.21186482	     -4.54198725	    -11.69897650	     14.76142144	     14.76142144	     13.66153623	    -11.78575155	     -5.66958935	    -11.66385144	      6.81556884	      1.89478786	     -1.30842387	    -13.13408478	    -13.10111810	     21.76097767	     47.57728350	      0.00000000	      0.00000000	     23.74296529	    -18.81315906	      6.07530230	     56.11571055	     46.33735446	      0.00000000	      0.00000000
      6.58400000	     -3.60350178	     -3.87995363	     -4.89992310	      1.03730897	      0.93269774	      0.45402827	     35.46678005	     -4.52984110	     -7.00220451	     36.61831176	     36.61831176	     -0.20783064	     -4.65516005	      0.23169660	      4.32940794	     -4.37867974	    -12.02865716	     14.15303693	     14.15303693	     14.01599192	    -11.56866262	     -5.98167010	    -11.58521338	      6.84731752	      2.08974592	     -2.83315587	    -13.49085603	    -13.54881950	     20.63267014	     47.65824929	      0.00000000	      0.00000000	     24.78650951	    -19.17026676	      5.58289071	     58.03787839	     46.41595643	      0.00000000	      0.00000000
      6.59528571	     -3.63171168	     -3.59939521	     -5.20511405	      1.03759268	      0.93154242	      0.45493649	     34.94144373	     -4.54256263	     -7.76227860	     32.51360910	     32.51360910	     -0.15839560	     -2.27043477	     -0.09849892	      3.21400944	     -3.97111528	    -12.46952725	     13.24949611	     13.24949611	     13.94497003	    -11.37521274	     -7.13401029	    -11.63356650	      6.67830482	      1.76832676	     -3.69335198	    -13.64163980	    -15.68868300	     19.04389795	     47.95522788	      0.00000000	      0.00000000	     24.47330546	    -20.11322872	      4.16677466	     62.80502832	     46.62395710	      0.00000000	      0.00000000
      6.60657143	     -3.65287508	     -3.49642807	     -5.46247393	      1.03812988	      0.93029980	      0.45613816	     34.20939880	     -4.24849205	     -8.48392591	     28.45077093	     28.45077093	      0.18273468	     -0.24142347	      0.61268018	      2.19901922	     -3.79228269	    -12.75869631	     12.65134077	     12.65134077	     14.33907139	    -11.14528958	     -7.42997119	    -11.56550950	      6.69903210	      1.97130685	     -5.23163934	    -13.96012967	    -16.13414493	     18.33881286	     48.02282415	      0.00000000	      0.00000000	     25.51026524	    -20.32600270	      3.56990519	     64.35953441	     46.70743896	      0.00000000	      0.00000000
      6.61785714	     -3.61578325	     -3.22144872	     -5.72086910	      1.03902427	      0.92883758	      0.45744102	     33.47787106	     -4.17351175	     -9.37982973	     24.91306558	     24.91306558	      0.89279021	      2.07067954	      1.86895618	      1.00816464	     -3.39751588	    -13.18923366	     11.83123716	     11.83123716	     14.61150832	    -10.70184237	     -7.95042833	    -11.55280110	      6.46106306	      2.22355493	     -6.90289625	    -14.14698326	    -16.90511865	     18.05610272	     48.10545358	      0.00000000	      0.00000000	     26.17481174	    -20.50317273	      2.69736682	     66.97028886	     46.83192287	      0.00000000	      0.00000000
      6.62914286	     -3.60793733	     -3.11511188	     -5.88614146	      1.04018289	      0.92717509	      0.45898731	     32.66547019	     -3.84432944	    -10.14706869	     21.66186366	     21.66186366	      1.55534977	      3.59544557	      3.17616242	     -0.06613483	     -3.22422590	    -13.41865474	     11.22264453	     11.22264453	     15.00735501	    -10.42280459	     -8.31172595	    -11.42751284	      6.41382966	      2.27656594	     -8.52654807	    -14.39214908	    -17.37240323	     17.88809271	     48.14661836	      0.00000000	      0.00000000	     26.79403047	    -20.74066357	      2.04766345	     68.91899223	     46.92302199	      0.00000000	      0.00000000
      6.64042857	     -3.64503181	     -2.85392339	     -6.06838091	      1.04156863	      0.92513801	      0.46063335	     32.21988417	     -3.77699296	    -11.06602135	     19.53060341	     19.53060341	      3.24780051	      5.32672065	      6.75960189	     -1.15276003	     -2.87825347	    -13.76385534	     10.49093926	     10.49093926	     15.28169017	     -9.98294930	     -8.94800803	    -11.28629883	      6.15955173	      1.96210902	    -10.33687804	    -14.43319843	    -18.75812590	     19.28468507	     48.19233947	      0.00000000	      0.00000000	     26.42088720	    -21.18870674	      0.42032871	     72.90916424	     47.13562053	      0.00000000	      0.00000000
      6.65171429	     -3.61003912	     -2.75424896	     -6.15311084	      1.04312261	      0.92310615	      0.46251330	     31.47294057	     -3.45164471	    -11.67788929	     17.44206942	     17.44206942	      3.87751995	      5.88730867	      7.60614931	     -2.15904503	     -2.74751480	    -13.86775685	     10.11342223	     10.11342223	     15.81395176	     -9.80063151	     -9.05286553	    -11.12051126	      6.07241385	      2.08022501	    -11.79082511	    -14.51658625	    -18.97360770	     19.01970614	     48.20424637	      0.00000000	      0.00000000	     27.21350937	    -21.20145292	     -0.04293476	     74.28625229	     47.20347894	      0.00000000	      0.00000000
